<?xml version="1.0" encoding="utf-8"?>
<!-- Generator: Adobe Illustrator 16.0.4, SVG Export Plug-In . SVG Version: 6.00 Build 0)  -->
<!DOCTYPE svg PUBLIC "-//W3C//DTD SVG 1.0//EN" "http://www.w3.org/TR/2001/REC-SVG-20010904/DTD/svg10.dtd">
<svg version="1.0" id="Layer_4" xmlns="http://www.w3.org/2000/svg" xmlns:xlink="http://www.w3.org/1999/xlink" x="0px" y="0px"
	 width="231.573px" height="151.318px" viewBox="31.872 139.619 231.573 151.318"
	 enable-background="new 31.872 139.619 231.573 151.318" xml:space="preserve">
<path fill="#CBCFD0" d="M256.129,147.9v134.804c0,0.289-0.145,0.577-0.338,0.817c-0.191,0.192-0.48,0.338-0.818,0.338H40.345
	c-0.626,0-1.156-0.529-1.156-1.155V147.9c0-0.626,0.53-1.156,1.156-1.156h214.627C255.6,146.792,256.129,147.274,256.129,147.9z"/>
<path fill="#762F38" d="M172.791,265.854c-1.156,0-2.167,0.481-2.889,1.203c-0.723,0.723-1.204,1.781-1.204,2.889
	c0,2.265,1.829,4.094,4.093,4.094h5.536c1.155,0,2.167-0.434,2.889-1.204s1.204-1.78,1.204-2.89c0-2.262-1.83-4.092-4.093-4.092
	H172.791L172.791,265.854z M182.227,265.998c1.06,1.059,1.687,2.504,1.687,4.092c0,3.178-2.601,5.777-5.776,5.777h-5.729
	c-1.589,0-3.033-0.674-4.093-1.686c-1.06-1.011-1.686-2.502-1.686-4.093c0-3.225,2.6-5.776,5.777-5.825h5.729
	C179.723,264.312,181.168,264.986,182.227,265.998z"/>
<path fill="#762F38" d="M148.719,265.854c-1.107,0-2.167,0.481-2.889,1.203c-0.723,0.723-1.204,1.781-1.204,2.889
	c0,2.265,1.829,4.094,4.093,4.094h5.536c1.106,0,2.167-0.434,2.89-1.204c0.722-0.722,1.203-1.78,1.203-2.89
	c0-2.262-1.83-4.092-4.093-4.092H148.719L148.719,265.854z M158.154,265.998c1.06,1.059,1.686,2.504,1.686,4.092
	c0,3.178-2.6,5.777-5.826,5.777h-5.681c-1.589,0-3.033-0.674-4.092-1.686c-1.059-1.06-1.685-2.502-1.685-4.093
	c0-3.225,2.6-5.776,5.777-5.825h5.729C155.65,264.312,157.096,264.986,158.154,265.998z"/>
<path fill="#CBCFD0" d="M145.541,267.201c0.723-0.723,1.781-1.203,2.889-1.203h5.536c2.263,0,4.093,1.83,4.093,4.092
	c0,1.107-0.481,2.167-1.203,2.889c-0.723,0.724-1.781,1.205-2.89,1.205h-5.536c-2.264,0-4.093-1.83-4.093-4.094
	C144.385,268.982,144.818,267.973,145.541,267.201z M148.43,267.152c-1.637,0-2.938,1.301-2.938,2.938
	c0,0.818,0.338,1.541,0.867,2.07s1.252,0.867,2.07,0.867h5.535c1.637,0,2.938-1.301,2.938-2.938c0-0.817-0.338-1.54-0.866-2.069
	c-0.53-0.529-1.252-0.867-2.07-0.867H148.43L148.43,267.152z"/>
<path fill="#CBCFD0" d="M168.409,270.09c0-1.154,0.481-2.166,1.204-2.889c0.722-0.723,1.781-1.203,2.889-1.203h5.536
	c2.263,0,4.093,1.83,4.093,4.092c0,1.107-0.434,2.167-1.204,2.889c-0.722,0.724-1.78,1.205-2.889,1.205h-5.536
	C170.238,274.184,168.409,272.354,168.409,270.09z M172.502,267.152c-1.637,0-2.938,1.301-2.938,2.938
	c0,0.818,0.338,1.541,0.867,2.07c0.528,0.529,1.252,0.867,2.069,0.867l0,0h5.536c1.637,0,2.938-1.301,2.938-2.938
	c0-0.817-0.338-1.54-0.867-2.069s-1.252-0.867-2.069-0.867H172.502L172.502,267.152z"/>
<path fill="#BD2E39" d="M69.617,241.012c1.637,1.637,2.648,3.898,2.648,6.402s-1.011,4.768-2.648,6.402
	c-1.637,1.638-3.899,2.647-6.403,2.647s-4.767-1.011-6.403-2.647c-1.637-1.637-2.648-3.898-2.648-6.402
	c0-5.007,4.044-9.051,9.099-9.051C65.717,238.363,67.98,239.374,69.617,241.012z"/>
<path fill="#BD2E39" d="M239.229,241.012c1.639,1.637,2.647,3.898,2.647,6.402s-1.01,4.768-2.647,6.402
	c-1.637,1.638-3.898,2.647-6.402,2.647s-4.766-1.011-6.402-2.647c-1.638-1.637-2.648-3.898-2.648-6.402
	c0-5.007,4.045-9.051,9.101-9.051C235.281,238.363,237.593,239.374,239.229,241.012z"/>
<path fill="#1A1718" d="M111.069,268.502c0.433,0.434,0.674,0.963,0.674,1.637c0,0.625-0.241,1.203-0.674,1.637
	c-0.434,0.386-0.963,0.675-1.637,0.675c-1.251,0-2.263-1.011-2.263-2.263c0-0.627,0.241-1.205,0.674-1.638
	c0.433-0.434,0.963-0.675,1.637-0.675C110.106,267.828,110.684,268.068,111.069,268.502z"/>
<path fill="#CBCFD0" stroke="#1A1718" stroke-miterlimit="10" d="M213.328,157.191V258.15c0,1.588-1.252,2.841-2.842,2.841H85.023
	c-1.589,0-2.84-1.253-2.84-2.841V157.191c0-1.588,1.251-2.84,2.84-2.84h125.463C212.076,154.303,213.328,155.603,213.328,157.191z
	 M202.688,239.182v-64.658c0-3.177-2.551-5.681-5.681-5.681H98.503c-3.129,0-5.681,2.551-5.681,5.681v64.658
	c0,3.129,2.552,5.683,5.681,5.683h98.503c1.59,0,2.985-0.628,4.044-1.687C202.062,242.166,202.688,240.771,202.688,239.182z"/>
<path fill="#762F38" d="M202.688,174.523v64.659c0,1.588-0.625,2.983-1.685,4.043c-1.011,1.012-2.455,1.686-4.044,1.686H98.503
	c-3.129,0-5.681-2.551-5.681-5.682v-64.706c0-3.177,2.552-5.681,5.681-5.681h98.503
	C200.137,168.843,202.688,171.394,202.688,174.523z M199.27,238.508v-63.31c0-1.589-1.252-2.841-2.84-2.841H99.081
	c-1.588,0-2.84,1.3-2.84,2.841v63.31c0,1.588,1.3,2.84,2.84,2.84h97.349C198.018,241.348,199.27,240.096,199.27,238.508z"/>
<path fill="#8F9F8E" d="M199.27,175.198v63.31c0,1.588-1.252,2.84-2.84,2.84H99.081c-1.588,0-2.84-1.252-2.84-2.84v-63.31
	c0-1.589,1.252-2.841,2.84-2.841h97.349C198.018,172.357,199.27,173.609,199.27,175.198z"/>
<path fill="#762F38" d="M143.47,265.229c1.252-1.252,2.985-2.022,4.911-2.022h5.682c3.853,0,6.934,3.082,6.934,6.935
	c0,1.926-0.771,3.657-2.021,4.909c-1.252,1.252-2.984,2.022-4.91,2.022h-5.683c-3.853,0-6.933-3.131-6.933-6.934
	C141.4,268.213,142.17,266.479,143.47,265.229z M148.333,275.916h5.729c3.226,0,5.776-2.6,5.824-5.777
	c0-1.589-0.674-3.033-1.685-4.093c-1.013-1.06-2.504-1.685-4.093-1.685h-5.682c-3.178,0-5.778,2.6-5.778,5.824
	c0,1.59,0.674,3.033,1.685,4.094C145.3,275.242,146.744,275.916,148.333,275.916z"/>
<path fill="#762F38" d="M167.494,265.229c1.252-1.252,2.984-2.022,4.91-2.022h5.729c3.853,0,6.933,3.082,6.933,6.935
	c0,1.926-0.771,3.657-2.021,4.909s-2.984,2.022-4.91,2.022h-5.729c-3.852,0-6.934-3.131-6.934-6.934
	C165.473,268.213,166.242,266.479,167.494,265.229z M168.312,274.184c1.06,1.06,2.504,1.685,4.092,1.685h5.729
	c3.179,0,5.777-2.601,5.777-5.777c0-1.588-0.627-3.032-1.687-4.092c-1.059-1.06-2.504-1.687-4.092-1.687h-5.729
	c-3.178,0-5.777,2.601-5.777,5.826C166.628,271.727,167.254,273.172,168.312,274.184z"/>
<path fill="#762F38" d="M241.541,238.652c2.215,2.215,3.609,5.344,3.609,8.714c0,3.418-1.396,6.499-3.609,8.714
	c-2.215,2.263-5.344,3.611-8.715,3.611c-3.369,0-6.499-1.396-8.715-3.611c-2.215-2.215-3.609-5.344-3.609-8.714
	c0-6.837,5.536-12.373,12.373-12.373C236.197,235.041,239.277,236.438,241.541,238.652z M241.877,247.414
	c0-2.504-1.01-4.766-2.646-6.402c-1.638-1.638-3.899-2.647-6.403-2.647c-5.007,0-9.101,4.044-9.101,9.051
	c0,2.504,1.012,4.767,2.648,6.403c1.636,1.636,3.9,2.646,6.402,2.646c2.504,0,4.768-1.011,6.404-2.646
	C240.867,252.182,241.877,249.918,241.877,247.414z"/>
<path fill="#762F38" d="M71.928,238.652c2.263,2.215,3.611,5.344,3.611,8.714c0,3.418-1.396,6.499-3.611,8.714
	c-2.215,2.263-5.296,3.611-8.714,3.611s-6.5-1.396-8.714-3.611c-2.263-2.215-3.611-5.344-3.611-8.714
	c0-6.837,5.537-12.373,12.373-12.373C66.632,235.041,69.713,236.438,71.928,238.652z M72.265,247.414
	c0-2.504-1.011-4.766-2.648-6.402c-1.637-1.638-3.899-2.647-6.403-2.647c-5.007,0-9.1,4.044-9.1,9.051
	c0,2.504,1.011,4.767,2.648,6.403c1.637,1.637,3.9,2.646,6.403,2.646s4.766-1.011,6.403-2.646
	C71.254,252.182,72.265,249.918,72.265,247.414z"/>
<path fill="#762F38" d="M263.445,143.037v144.48c0,1.879-1.539,3.42-3.418,3.42H35.29c-1.878,0-3.418-1.541-3.418-3.42v-144.48
	c0-1.877,1.541-3.418,3.418-3.418h224.69C261.906,139.619,263.445,141.16,263.445,143.037z M256.129,282.704V147.9
	c0-0.626-0.529-1.156-1.156-1.156H40.345c-0.626,0-1.156,0.53-1.156,1.156v134.804c0,0.626,0.53,1.155,1.156,1.155h214.627
	c0.338,0,0.577-0.146,0.817-0.338C255.984,283.33,256.129,283.041,256.129,282.704z"/>
<path fill="#762F38" d="M197.344,265.854c-1.154,0-2.166,0.481-2.889,1.203c-0.723,0.723-1.203,1.781-1.203,2.889
	c0,2.265,1.829,4.094,4.092,4.094h5.537c1.155,0,2.166-0.434,2.889-1.204c0.724-0.771,1.203-1.78,1.203-2.89
	c0-2.262-1.828-4.092-4.092-4.092H197.344L197.344,265.854z M206.779,265.998c1.061,1.059,1.686,2.504,1.686,4.092
	c0,3.178-2.6,5.777-5.777,5.777h-5.729c-1.589,0-3.033-0.674-4.092-1.686c-1.061-1.011-1.686-2.502-1.686-4.093
	c0-3.225,2.6-5.776,5.776-5.825h5.729C204.277,264.312,205.721,264.986,206.779,265.998z"/>
<path fill="#CBCFD0" d="M192.963,270.09c0-1.154,0.48-2.166,1.203-2.889s1.781-1.203,2.889-1.203h5.537
	c2.264,0,4.092,1.83,4.092,4.092c0,1.107-0.433,2.167-1.203,2.889c-0.723,0.724-1.732,1.205-2.889,1.205h-5.537
	C194.793,274.184,192.963,272.354,192.963,270.09z M197.055,267.152c-1.637,0-2.937,1.301-2.937,2.938
	c0,0.818,0.337,1.541,0.866,2.07s1.252,0.867,2.07,0.867l0,0h5.536c1.638,0,2.937-1.301,2.937-2.938c0-0.817-0.336-1.54-0.865-2.069
	s-1.252-0.867-2.07-0.867H197.055L197.055,267.152z"/>
<path fill="#762F38" d="M192.049,265.229c1.251-1.252,2.984-2.022,4.91-2.022h5.729c3.853,0,6.935,3.082,6.935,6.935
	c0,1.926-0.771,3.657-2.022,4.909c-1.25,1.252-2.984,2.022-4.91,2.022h-5.729c-3.853,0-6.935-3.131-6.935-6.934
	C190.025,268.213,190.797,266.479,192.049,265.229z M192.867,274.184c1.059,1.06,2.503,1.685,4.092,1.685h5.729
	c3.179,0,5.777-2.601,5.777-5.777c0-1.588-0.625-3.032-1.686-4.092c-1.059-1.06-2.502-1.687-4.092-1.687h-5.729
	c-3.179,0-5.776,2.601-5.776,5.826C191.182,271.727,191.809,273.172,192.867,274.184z"/>
<g id="Layer_2_2_">
	<g>
		<g>
			<path d="M65.091,170.816l0.771-1.83h-1.011l-0.53,1.204l-0.818-0.722c0.626-0.578,0.674-0.722,0.722-1.3
				s-0.481-1.251-1.444-1.251c-0.963,0-1.348,0.77-1.348,1.3c0,0.529,0.289,0.818,0.626,1.155C61.481,169.757,61,170.143,61,171.25
				c0,0.866,0.771,1.637,1.877,1.637c1.107,0,1.589-0.867,1.733-1.204c0.385,0.337,1.204,1.107,1.204,1.107l0.626-0.674
				L65.091,170.816z M62.925,167.783c0.241,0,0.481,0.145,0.481,0.434c0,0.337-0.481,0.626-0.481,0.626
				c-0.385-0.337-0.481-0.385-0.481-0.626C62.443,167.928,62.684,167.783,62.925,167.783z M62.973,172.02
				c-0.385,0-0.963-0.096-0.963-0.77s0.241-0.819,0.866-1.204c0,0,0.963,0.867,1.156,1.06
				C63.743,171.828,63.358,172.02,62.973,172.02z"/>
		</g>
	</g>
	<polygon points="62.443,165.906 66.391,159.936 67.354,159.936 67.354,164.076 70.146,159.984 71.157,159.984 71.157,165.906 
		70.146,165.906 70.146,161.813 67.354,165.906 66.391,165.906 66.391,161.765 63.647,165.906 	"/>
	<polygon points="71.976,165.906 71.976,159.984 75.057,159.984 75.057,160.947 72.987,160.947 72.987,162.487 75.057,162.487 
		75.057,163.499 72.987,163.499 72.987,164.895 75.057,164.895 75.057,165.906 	"/>
	<g>
		<g>
			<path d="M61.144,159.984l-3.948,5.97H58.4l0.866-1.3h1.926v1.3h1.011v-5.97C62.154,159.984,61.144,159.984,61.144,159.984z
				 M61.144,163.595H59.94l1.204-1.83V163.595z"/>
		</g>
	</g>
	<g>
		<g>
			<path d="M61.047,173.609l-3.948,5.97h1.204l0.867-1.3h1.926v1.3h1.011v-5.97H61.047z M61.047,177.268h-1.204l1.204-1.829V177.268
				z"/>
		</g>
	</g>
	<g>
		<g>
			<path d="M57.821,163.017h-3.129v0.963h2.022c-0.337,0.77-1.156,1.348-2.07,1.348c-1.252,0-2.263-1.011-2.263-2.263
				s1.011-2.263,2.263-2.263c0.77,0,1.444,0.385,1.877,0.963h1.011c-0.481-1.107-1.589-1.877-2.889-1.877
				c-1.733,0-3.129,1.396-3.129,3.129s1.396,3.129,3.129,3.129s3.129-1.396,3.129-3.129
				C57.821,163.065,57.821,163.065,57.821,163.017z"/>
		</g>
	</g>
	<rect x="54.692" y="163.017" fill="none" width="3.178" height="1.011"/>
	<rect x="55.511" y="161.813" fill="none" width="3.081" height="0.626"/>
	<g>
		<g>
			<path d="M70.195,177.99c-0.385,0.481-0.963,0.771-1.637,0.771c-1.204,0-2.167-0.963-2.167-2.167c0-1.204,0.963-2.167,2.167-2.167
				c0.626,0,1.204,0.289,1.589,0.674h1.155c-0.529-1.011-1.588-1.685-2.744-1.685c-1.733,0-3.129,1.396-3.129,3.129
				s1.396,3.129,3.129,3.129c1.204,0,2.263-0.722,2.792-1.733L70.195,177.99z"/>
		</g>
	</g>
	<polygon points="51.562,173.657 51.562,179.627 52.622,179.627 55.318,175.535 55.318,179.579 56.377,179.579 60.277,173.657 
		59.073,173.657 56.377,177.749 56.377,173.657 55.318,173.657 52.622,177.749 52.622,173.657 	"/>
	<polygon points="62.395,173.609 65.717,173.609 65.717,174.62 64.562,174.62 64.562,179.579 63.551,179.579 63.551,174.668 
		62.395,174.668 	"/>
	<polygon points="71.639,173.657 71.639,179.627 72.65,179.627 72.65,177.075 74.479,177.075 74.479,179.579 75.49,179.579 
		75.49,173.657 74.527,173.657 74.527,176.064 72.65,176.064 72.65,173.657 	"/>
	<g>
		<g>
			<path d="M75.683,158.154H51.081c-0.915,0-1.637,0.722-1.637,1.637v20.076c0,0.915,0.722,1.637,1.637,1.637h24.602
				c0.915,0,1.637-0.722,1.637-1.637v-20.076C77.32,158.876,76.598,158.154,75.683,158.154z M77.031,179.819
				c0,0.771-0.626,1.396-1.396,1.396H51.178c-0.771,0-1.396-0.626-1.396-1.396v-19.98c0-0.77,0.626-1.396,1.396-1.396h24.409
				c0.77,0,1.396,0.626,1.396,1.396v19.98H77.031z"/>
		</g>
	</g>
</g>
</svg>
