<?xml version="1.0" encoding="utf-8"?>
<!-- Generator: Adobe Illustrator 21.0.0, SVG Export Plug-In . SVG Version: 6.00 Build 0)  -->
<svg version="1.0"
	 id="Layer_2" xmlns:cc="http://creativecommons.org/ns#" xmlns:dc="http://purl.org/dc/elements/1.1/" xmlns:rdf="http://www.w3.org/1999/02/22-rdf-syntax-ns#"
	 xmlns="http://www.w3.org/2000/svg" xmlns:xlink="http://www.w3.org/1999/xlink" x="0px" y="0px" viewBox="0 0 280.2 381.2"
	 enable-background="new 0 0 280.2 381.2" xml:space="preserve">
<g id="Layer_5_1_" transform="matrix(0.4161329,0,0,0.4161329,197.98398,622.57578)">
	<path id="path134_1_" fill="#991A37" d="M-138.8-585.3c-52.1,0-102.8-9.9-142.8-27.8c-43.6-19.6-73.4-48-86.2-82.3
		c-5.7-15.3-45.7-122.5-66.2-177.3c1,0.2,2,0.4,3,0.6c1.3,0.2,2.6,0.4,3.9,0.6c4.9,0.7,9.1,1.2,13,3.3c5.3,2.8,6.9,7.1,9.3,14.4
		l6.7,20.4c1.5,4.5,6.8,6.2,18.8,6.2c1.3,0,2.4,0,2.9,0c1,0,2.1-0.1,3.1-0.1c2.4-0.1,4.8-0.2,7.1-0.2c4,0,7.3,0.3,10.3,0.9
		c7,1.4,12.7,4.1,16.6,7.8c2.2,2,3,4.2,4.1,7.3c0.6,1.8,1.4,3.8,2.4,5.9c5.2,10,17.2,15.7,33,15.7c2.8,0,5.5-0.2,8.2-0.5
		c3.7-0.5,7.3-1.3,10.7-2.1c4.5-1,8.7-2,13-2.2c1.2-0.1,2.5-0.1,3.8-0.1c5.9,0,11.6,0.7,17,2.2c7.1,1.9,12.7,4.7,16.8,8.4
		c1,0.9,2,1.8,2.9,2.7c3.1,2.9,6.2,5.9,10.8,8.2c6.8,3.3,14.8,5.1,23,5.1c8.6,0,17.1-1.9,24.8-5.4l1.5-0.7
		c6.8-3.2,12.6-5.9,19.6-7.1c4.1-0.7,8.4-1.1,12.6-1.1c3,0,6,0.2,9,0.5c6.9,0.8,13.2,3.5,19.9,6.3c7.4,3.1,15,6.2,23.6,7.1
		c1.9,0.2,3.9,0.3,5.8,0.3c6.6,0,12.8-1.1,18.6-3.2c7.3-2.6,11.8-6.9,16.6-11.4l1.3-1.2c10-9.4,25.2-10.8,33.4-10.8
		c1.4,0,2.8,0,4.2,0.1c4.9,0.3,9.6,1.2,14.6,2.2c6,1.2,12.1,2.4,18.6,2.4c4.7,0,9-0.6,13.2-1.9c9.4-2.9,16.1-8.6,18.8-15.9l0.1-0.2
		l0.1-0.2c1.7-6.3,3.8-9.7,7.9-12.6c4.7-3.3,10.8-5.4,18.1-6.3c1.5-0.2,3.2-0.3,5.1-0.3c2,0,4,0.1,6.1,0.2c2.1,0.1,4.3,0.2,6.5,0.2
		c1.6,0,3-0.1,4.3-0.2l0.9-0.1c4.2-0.3,12.1-0.8,14.3-7.4l3.8-11.3c0.6-1.8,1.1-3.6,1.6-5.5c1.4-4.9,2.9-10,5.5-13.1
		c4-4.6,10.8-6.2,15.7-6.8l1.1-0.1c2.2-0.2,4.6-0.5,7.1-1L93.2-695.9c-13,34.2-43.3,62.8-87.6,82.5
		C-35-595.2-86.3-585.2-138.8-585.3"/>
	<path id="path136_1_" fill="#010101" d="M168.8-882.3c0,0-0.1,0.1-0.1,0.1c-0.1,0.1-0.2,0.2-0.2,0.2
		C168.6-882.1,168.7-882.2,168.8-882.3 M168.8-882.3L168.8-882.3L168.8-882.3L168.8-882.3z M168.8-882.3
		C168.8-882.3,168.8-882.3,168.8-882.3L168.8-882.3L168.8-882.3z M168.8-882.4c0,0-0.1,0.1-0.2,0.2l0,0
		C168.7-882.3,168.8-882.3,168.8-882.4 M168.9-882.4C168.8-882.4,168.8-882.4,168.9-882.4C168.8-882.4,168.8-882.4,168.9-882.4
		L168.9-882.4 M168.9-882.4L168.9-882.4C168.8-882.4,168.8-882.4,168.9-882.4C168.8-882.4,168.9-882.4,168.9-882.4 M-444.4-885.6
		c17.7,47.3,65.5,175.2,71.7,192c28.3,75.8,130.9,113.4,233.8,113.4c103.8,0,207.9-38.2,236.8-114c6.7-17.7,55.3-145.2,72.9-191.4
		c-0.4,1.1-1.1,2.2-2,3c0.1-0.1,0.2-0.2,0.2-0.2s-0.1,0.1-0.3,0.3c-0.2,0.2-0.3,0.3-0.3,0.3s0,0,0,0c-1.1,1.1-1.5,1.5-1.5,1.5
		c0,0,1.1-1.1,1.6-1.7c-4.4,4.4-11.1,4.8-16.9,5.5c-6.9,0.8-14.3,3.1-19,8.4c-4.6,5.2-6,13.8-8.2,20.3c-1.3,3.8-2.6,7.6-3.8,11.3
		c-1.2,3.6-7.2,3.7-10.7,4c-1.3,0.1-2.6,0.1-3.9,0.1c-4.2,0-8.4-0.4-12.6-0.4c-1.9,0-3.8,0.1-5.7,0.3c-7.2,0.9-14.4,3-20.4,7.2
		c-5.7,4-8.2,8.9-9.9,15.5c-2.4,6.7-8.9,10.8-15.4,12.8c-4,1.2-7.8,1.7-11.6,1.7c-11,0-21.5-3.9-32.9-4.5c-1.5-0.1-3-0.1-4.5-0.1
		c-13,0-27.3,3.2-36.9,12.2c-5.1,4.8-9.2,9.1-16.1,11.5c-5.4,2-11.1,2.9-16.8,2.9c-1.8,0-3.5-0.1-5.3-0.3
		c-15.5-1.5-27.9-11.4-43.4-13.3c-3.2-0.4-6.4-0.6-9.6-0.6c-4.5,0-9,0.4-13.5,1.2c-8.2,1.4-14.9,4.8-22.3,8.2
		c-6.9,3.2-14.8,4.9-22.6,4.9c-7.2,0-14.4-1.5-20.8-4.6c-5.2-2.5-8.4-6.4-12.6-10.1c-5.3-4.8-12.1-7.7-18.9-9.5
		c-6-1.6-12.1-2.3-18.3-2.3c-1.3,0-2.7,0-4,0.1c-8.3,0.4-16,3.2-24.1,4.3c-2.4,0.3-4.9,0.5-7.6,0.5c-10.9,0-23.3-3.1-28.4-12.9
		c-2.7-5.3-2.9-10.2-7.6-14.6c-5.2-4.9-12.2-7.6-19.1-9c-3.8-0.8-7.6-1-11.3-1c-3.4,0-6.8,0.2-10.4,0.3c-0.5,0-1.5,0-2.8,0
		c-4.7,0-13.1-0.3-13.9-2.7c-2.1-6.3-4.2-12.6-6.3-18.9c-2.6-7.7-4.4-14.6-12.2-18.8c-5.9-3.2-12.1-3.4-18.5-4.5
		C-435.5-878-442.4-880.1-444.4-885.6 M-444.4-885.6C-444.4-885.6-444.4-885.6-444.4-885.6C-444.4-885.6-444.4-885.6-444.4-885.6
		 M152.5-866.4l-25.5,67.1L88.3-697.8c-12.5,32.9-41.9,60.5-84.8,79.7c-40,17.9-90.5,27.7-142.3,27.7c-51.4,0-101.4-9.7-140.7-27.4
		c-42.3-19-71.2-46.5-83.5-79.4c-5.4-14.5-42-112.3-63.1-169c3.8,0.5,6.8,1.1,9.5,2.5c3.4,1.8,4.5,4.5,6.8,11.5l0.5,1.5l3.8,11.4
		l2.5,7.5c3.2,9.8,16.5,9.8,23.7,9.8c1.4,0,2.5,0,3.1,0c1.1,0,2.1-0.1,3.2-0.1c2.4-0.1,4.7-0.2,6.9-0.2c3.7,0,6.5,0.2,9.2,0.8
		c6,1.2,10.9,3.5,14.1,6.5c1.2,1.1,1.6,2.2,2.7,5.3c0.7,1.9,1.5,4.1,2.7,6.5c6.1,11.8,19.7,18.5,37.5,18.5c3,0,6-0.2,8.9-0.6
		c3.9-0.5,7.6-1.3,11.2-2.1c4.3-1,8.3-1.9,12.2-2.1c1.2-0.1,2.3-0.1,3.5-0.1c5.4,0,10.7,0.7,15.6,2c6.3,1.7,11.2,4.1,14.7,7.3
		c0.9,0.8,1.8,1.7,2.8,2.6c3.2,3.1,6.8,6.5,12.1,9.1c7.5,3.7,16.3,5.6,25.3,5.6c9.3,0,18.6-2,26.9-5.9l1.5-0.7
		c6.4-3,12-5.6,18.3-6.7c3.8-0.7,7.8-1,11.7-1c2.8,0,5.6,0.2,8.4,0.5c6.2,0.8,12.2,3.3,18.6,5.9c7.7,3.2,15.7,6.5,25.1,7.4
		c2.1,0.2,4.2,0.3,6.3,0.3c7.2,0,14-1.2,20.3-3.5c8.3-3,13.4-7.9,18.4-12.5l1.2-1.2c6.4-6,17.2-9.4,29.8-9.4c1.3,0,2.6,0,3.9,0.1
		c4.6,0.3,9.1,1.1,13.9,2.1c6.2,1.2,12.6,2.5,19.6,2.5c5.2,0,10-0.7,14.7-2.1c11-3.4,18.9-10.2,22.1-19.1l0.1-0.4l0.1-0.4
		c1.4-5.1,2.8-7.6,5.9-9.7c4-2.8,9.4-4.6,15.7-5.4c1.3-0.2,2.8-0.2,4.5-0.2c1.9,0,3.8,0.1,5.8,0.2c2.2,0.1,4.4,0.2,6.8,0.2
		c1.7,0,3.2-0.1,4.7-0.2l0.8-0.1c4.6-0.3,15.5-1,18.9-10.9l1.8-5.3l2.1-6.1c0.6-1.9,1.2-3.8,1.7-5.7c1.2-4.2,2.5-8.9,4.4-11
		C142.7-863.9,147-865.7,152.5-866.4"/>
	<path id="path138_1_" fill="#010101" d="M-162.2-1091.1c-10,0-19,3.8-28.7,4.5c-9.5,0.6-19-1-28.6-0.3c-12.2,0.9-22.5,7.5-34.9,7.5
		c-11.4,0-23.2-0.2-33.6,5.2c-17,8.8-42.2,3.3-56.2,17.8c-11.4,11.7-32.8,5.8-45.7,18.1c-3.4,3.2-3.9,8.5-8.1,10
		c-4.8,1.7-9.8,2.7-14.6,4.3c-9.4,3.2-19.5,8.6-23.2,18.5c-2.4,6.4,0.8,7.2-5.6,9.8c-4.4,1.8-8.8,4-12.6,6.9
		c-7,5.4-8.8,12.8-9.8,21.7c-0.1,0.7,0.1,12,0.1,12c-3.4,2.7-6.3,6-8.5,9.8c-5.1,8.9-4.1,18.5-0.3,27.8c4.1,10.1,7.5,13.9,8,24.3
		c-0.4,5,2,10.2,3.8,14.6c7.7,19,12.1,33.5,35.2,34c4.7,0.1,6.8,18.4,8.6,23c4.3,11.4,14.5,19.2,26.1,22.3
		c15.6,4.2,40.2-5.1,47.2,13.2c7.9,20.6,32.4,28.3,52.7,26.6c16.4-1.3,40.4-11.7,53.8,3.5c15.5,17.6,41.7,22,63.6,16.2
		c20-5.3,34.8-17.4,56.4-9.1c23.9,9.2,46,17.3,70.7,3.9c17.4-9.4,23.8-22.6,46.4-18.8c19.9,3.4,39,7.6,57.4-4
		c13.4-8.4,13.8-27.9,29.9-29.8c14.2-1.7,27.9,1.7,41.3-5.3c16.2-8.4,20-26.8,23.6-43.2c14.3-2.1,26.7-6,31.9-21.3
		c3.3-7.2,6.6-15,7.7-22.9c0.5-3.2,0.3-6.4-0.4-9.5c2.4-3,4.7-5.8,6.4-9.3c8.1-17,6.2-36.8-10.2-47.7c4.3-15.5-0.5-26.5-14.7-34.8
		c-7.2-4.1-11.1-3.5-13.2-11.3c-2-7.2-5.3-12.9-11.7-16.7c-8.2-4.8-17.5-5.7-26.1-9.3c-3.5-9.2-12.6-14.7-21.5-17.7
		c-7.4-2.4-15.2-2.8-22.7-4.8c-7.7-2.1-12.1-9.3-20-12.1c-8.6-3.1-17.7-3.4-26.6-4.3c-9.7-1-16.4-6.9-25.5-9.2
		c-9.7-2.5-19.1-1.9-28.9-2.5c-9.8-0.6-18.2-5.7-27.9-7c-7.7-1-15.4-0.3-23.1,0c-10.5,0.4-20-2.9-30.4-4.2
		c-9.7-1.2-19.3,0.6-28.9,1.6C-143.7-1088-152.7-1091.1-162.2-1091.1"/>
	<path id="path140_1_" fill="#991A37" d="M-192.3-750.3c-12.9,0-26.5-4.3-35.4-14.5c-6.9-8-17.4-11.4-27.5-12.5
		c-14.4-1.5-27.4,4.7-41.6,4.7c-12.6,0-27.2-4.3-33.9-16.5c-2.6-4.7-2.5-10.2-6.5-14c-5.2-5-12.6-7.3-19.4-8.2
		c-13.5-1.7-26.8,2.6-39.3-5.3c-5-3.2-8.8-8.1-10.1-14.2c-0.9-3.2-6.1-21.4-6.9-25.3c-1.1-5.7-18.4-1.8-24.3-5.1
		c-5.3-3-8-11.1-9.6-14.8c-1.7-3.8-6.9-15.5-7.2-19.1c0.9-1.7,19.9-5.7,19.9-5.7s-3.3-0.9-9.2-2.9c-5.8-2-12.6-7.8-14.3-11.1
		c-1.7-3.3-9.8-17.3-7.3-24.5c3.7-4.6,22.3-4.1,26.4-7.6c-1-1.2-11.3-8.9-12.5-10.5c-4-5.5-3.1-17.6,1.1-22.5
		c4.4-5.2,23.4-2.6,30.1-6.5c2.6-1.5-9.3-0.8-7-2.8c3-2.5,1.8-11.1,2.3-14.7c1.9-15,27-10.2,36.6-14c2.9-1.1,5.6,1.4,8-0.6
		c1.5-1.2,1.3-5.6,2.6-7.6c3.3-5.3,16.2-12.2,21.8-13.9c6.2-1.9,6.2,2,12.4,0c3-1,6.2-2.1,8.7-4.1c2.1-1.6,3.1-4.8,5.5-6.5
		c6-4.3,12.4-7.3,19.2-8.7c6.9-1.4,14.1-1.3,21.5-1.3c5,0,7.9-5.7,12.7-7.4c6.9-3.4,11.6-4.5,18.5-5.3c6.1,0.3,14.7,2.2,20.6,0.5
		c5.3-1.5,9.7-4.7,15.2-5.7c12.2-2.4,24.3,1.3,36.6-0.8c5.4-0.9,10.2-3.3,15.7-4c6.4-0.8,13.1-0.6,19.4,1.1
		c12.7,3.4,24.5-1.6,37.1-1.4c9.4,0.1,17.6,4.2,26.8,5.1c11.3,1.1,22.3-2,33.5,0.7c5.1,1.2,9.3,4.3,14.4,5.6
		c6.3,1.7,12.7-0.6,19.2-0.7c5.6,0.5,9.4,2.7,16.8,6c6.5,2.7,10.5,5.3,16.4,7.3c6.8,2.3,8.1-1.1,15.5-0.2
		c7.9,0.9,19.9,6.2,25.3,10.9c2.2,1.9,3,4.8,5.4,6.2c2.5,1.5,5.3,2.6,8.1,3.4c4.9,1.5,1.1-3,6.1-2.1c7.6,1.5,20.3,8.7,24.7,12.7
		c2.3,2.1,4.2,5,4.5,8.3c0.3,3,3,3.8,5.8,3.3c1-0.2,2.1-0.5,3.8-0.1c5.9,1.9,20.5-1.1,26.7,4.3c4.4,3.8,7.9,3.9,8.8,10.4
		c0.4,2.9,1.5,17,3.7,16.7c5.9,2.6,16.9,0.3,22.2,6.7c2.3,2.8,4.2,5.2,2.9,10c-1.3,4.8-5.6,19.5-4.4,20.3c5.5,4.2,14.3,2.9,16.8,9
		c2.6,6.6-1,21.3-4.9,25.7c-1.2,1.3-7.3,9.2-7.5,10.7c2.9,3.9,2.7,4.9,2.6,7.7c-0.1,2.8-2.2,10.5-7.1,21.4
		c-4.5,14.7-21.9,11.7-33,15.5c-1.1,5.9-6.3,30.9-10.8,36.8c-9,11.7-24.2,10.8-37,10.4c-6.5-0.2-13.2,0.7-19.2,3.4
		c-2.8,1.2-5.5,2.8-7.7,5c-2.9,2.9-3.4,5.9-4.6,9.7c-4.1,13.4-18,19.5-30.3,20.7c-10.4,1-19.4-2.2-29.5-3.9
		c-9.8-1.7-20.1-1.1-29.5,2.2c-4.4,1.6-8.8,3.8-12.3,7.1c-3.3,3.1-5.9,6.6-9.6,9.2c-8.2,5.6-18.3,8-28,8c-10,0-20-2.5-28.8-7.7
		c-8.6-5-18.8-6.9-28.5-6.9c-9.7,0-19.9,1.9-28.5,7C-172.1-752.9-182.2-750.4-192.3-750.3"/>
	<path id="path142_1_" fill="#CB2027" d="M-193.6-782.5c-13.2,0-27.1-3.9-36.2-13.2c-7.1-7.3-17.9-10.4-28.1-11.3
		c-14.7-1.4-28,4.3-42.6,4.3c-12.9,0-27.9-3.9-34.7-15c-2.6-4.2-2.6-9.2-6.6-12.7c-5.3-4.6-12.9-6.7-19.9-7.4
		c-13.8-1.5-27.4,2.4-40.2-4.8c-5.1-2.9-9.2-7.4-10.3-12.9c-0.6-2.7-0.4-5.4,0.3-8.1c0.7-2.6,2.2-5,1-7.7c-2.2-4.9-9.2-6.9-14.3-7.7
		c-6.5-1-12.8-1.1-18.8-4.2c-5.4-2.7-9.6-7.5-9.9-13.5c-0.3-6.7,4-11.1,8.2-15.9c4.3-4.8,1.4-8.2-4.4-9.6
		c-6.2-1.5-12.5-4.8-14.4-10.9c-2-6.3,1.8-12.4,6.7-16.4c4.2-3.5,10.8-5.6,13.6-10.4c0.9-1.7-4.7-4.1-5.9-5.6
		c-4.1-5-2.8-11.4,1.4-15.8c4.5-4.7,10.6-7.1,16.7-9.5c2.8-1.1,5.6-2.5,8-4.3c3.1-2.3,0.8-2.7,0.2-6c-2.7-14.4,20-17.5,29.8-20.9
		c2.9-1,5.9-2.3,8.4-4.1c1.5-1.1,1.4-5.1,2.7-6.9c3.4-4.8,9.9-7.2,15.6-8.8c6.4-1.7,13-2,19.4-3.8c3-0.9,6.3-1.9,8.9-3.7
		c2.1-1.5,3.1-4.3,5.6-5.9c12.3-7.8,28.2-4.4,41.7-9c4.8-1.6,8.1-5.2,13-6.8c6.7-2.1,14.1-2.8,21.2-2.5c6.3,0.3,12.8-0.3,18.8-1.9
		c5.4-1.4,9.9-4.2,15.6-5.2c12.5-2.2,24.9,1.2,37.4-0.7c5.5-0.8,10.5-3,16-3.6c6.6-0.7,13.4-0.6,19.9,1c13,3.1,25.1-1.4,38-1.3
		c9.6,0.1,18,3.8,27.4,4.6c11.5,1,22.8-1.8,34.3,0.6c5.2,1.1,9.6,3.9,14.7,5.1c6.4,1.5,12.9,1.8,19.5,1.7c5.9-0.1,12,0.5,17.7,2
		c6.2,1.7,10.4,5.9,16.4,7.8c13.4,4.1,30.2,0.8,41.8,9.7c2.2,1.7,3.1,4.3,5.6,5.7c2.6,1.4,5.5,2.3,8.3,3.1c5,1.4,10.1,1.7,15.1,2.8
		c5.8,1.2,11.9,3.1,16.4,6.8c2.4,1.9,4.3,4.5,4.6,7.5c0.3,2.7,3.3,3.8,5.9,4.9c8.2,3.6,17.3,4.2,25.1,8.9c4.9,3,9.4,7.8,8.1,13.7
		c-0.5,2.4-2.5,3.2-0.4,5c2.6,2.1,5.7,3.7,8.9,4.9c9.3,3.7,26.8,11.9,19,24.1c-1.4,2.3-3.6,4-6.1,5.2c-1.8,0.9,0.3,2.5,1.3,3.5
		c4.4,4.4,10.7,6.5,15,11.1c4.1,4.5,6,10.6,2.9,16.1c-3.5,6.1-9.9,6.8-15.9,9.4c-6.6,2.8-2.2,7.5,1.1,10.9
		c4.5,4.7,7.5,11.2,5.3,17.5c-4.7,13.4-20.9,11.2-32.2,14.7c-5.3,1.6-11.7,5.5-9.1,11.6c2.7,6.3,2,13.4-2.7,18.8
		c-9.3,10.6-24.7,9.8-37.8,9.4c-6.6-0.2-13.5,0.7-19.6,3.1c-2.8,1.1-5.6,2.6-7.9,4.5c-3,2.6-3.5,5.4-4.7,8.8
		c-4.2,12.2-18.4,17.7-31,18.8c-10.6,0.9-19.9-2-30.1-3.5c-10-1.5-20.6-1-30.2,2c-4.5,1.4-9,3.5-12.6,6.5c-3.4,2.8-6,6-9.9,8.3
		c-8.4,5.1-18.7,7.3-28.7,7.3c-10.2,0-20.5-2.3-29.4-7c-8.8-4.6-19.2-6.3-29.2-6.3c-10,0-20.4,1.7-29.2,6.3
		C-173-784.9-183.3-782.5-193.6-782.5"/>
	<path id="path144_1_" fill="#010101" d="M-56.9-991.8c0,21.1-37.5,38.2-83.8,38.2c-46.3,0-83.8-17.1-83.8-38.2
		c0-21.1,37.5-38.2,83.8-38.2C-94.4-1030-56.9-1012.9-56.9-991.8"/>
	<path id="path146_1_" fill="#FFCD05" d="M-48.9-853.7c-9.3,0-18.7-1.7-26.9-4.9c-10.1-3.9-17.5-9.7-21.4-16.8
		c-0.4-0.8-0.8-1.4-1.1-1.8c-1.6-2.7-1.9-3.7-2.1-7.8l-0.4-7.7l-0.6-12.1l9.1,8c2.6,2.3,5.6,4.3,8.9,6c9.9,5.1,21.7,7.8,34.1,7.8
		c11.7,0,23-2.4,32.6-7c3.8-1.8,7.2-4,10.2-6.6l9.2-8l-0.7,12.2c-0.1,2.3-0.3,3.2-0.4,4.1c-0.1,0.8-0.2,1.4-0.3,3.3
		c-0.6,12.4-11.1,20-17.4,23.4C-25.4-856.5-36.8-853.7-48.9-853.7"/>
	<path id="path148_1_" fill="#1D1D1B" d="M-107-916.6l1.1,24.2c0.1,1.5,0.1,3.1,0.2,4.6l0.2,3c0.2,4.7,0.6,6.6,2.8,10.2
		c0.3,0.4,0.6,1,1,1.7c4.5,8.2,12.8,14.8,24.1,19.1c8.9,3.4,18.8,5.2,28.8,5.2c13,0,25.3-3,35.5-8.6c12.3-6.8,19.5-16.6,20-27.7
		c0.1-1.6,0.2-2.2,0.3-2.8c0.2-1.1,0.3-2.2,0.4-4.5l1.4-24.4l-18.4,16c-2.6,2.3-5.7,4.3-9,5.9c-8.9,4.2-19.4,6.5-30.4,6.5
		c-11.6,0-22.6-2.5-31.8-7.2c-3-1.5-5.6-3.3-7.9-5.3L-107-916.6L-107-916.6z M-95.6-893c2.8,2.5,6.1,4.7,9.9,6.7
		c10.6,5.5,23.2,8.4,36.5,8.4c12.5,0,24.5-2.6,34.8-7.5c4.4-2.1,8.2-4.6,11.4-7.4c-0.2,4.2-0.5,3.2-0.7,7.4
		c-0.4,8.7-7.5,15.2-14.7,19.2c-9.1,5-19.8,7.4-30.5,7.4c-8.7,0-17.3-1.6-25.1-4.5c-7.3-2.8-14.8-7.4-18.8-14.5
		c-2.2-4-2.3-3.1-2.5-7.4C-95.4-887.9-95.5-890.4-95.6-893"/>
	<path id="path150_1_" fill="#FFCD05" d="M-49.2-883.8c-12.2,0-23.8-2.4-33.6-6.8c-13.7-6.2-20.8-15.9-19.6-26.5
		c1.1-9.4,8.5-17.4,21-22.7c9.5-4,20.6-6.1,32-6.1c11.6,0,22.7,2.1,32.2,6.2c0.8,0.3,2,0.8,3.2,1.5c11.6,5.8,18,14.1,18,23.5
		c0,10.1-7.7,19.2-21.2,24.8C-26.6-885.9-37.7-883.8-49.2-883.8"/>
	<path id="path152_1_" fill="#1D1D1B" d="M-49.3-951c-12.2,0-23.9,2.2-34,6.5c-14.3,6-22.9,15.5-24.2,26.8
		c-1.5,12.8,7,24.7,22.6,31.8c10.4,4.8,22.8,7.3,35.7,7.3c12.2,0,23.9-2.2,34-6.5c15.4-6.5,24.3-17.3,24.3-29.6
		c0-11.4-7.3-21.4-20.7-28.1c-1.4-0.8-2.7-1.4-3.8-1.7C-25.4-948.8-37.1-951-49.3-951 M-49.3-940.7c11,0,21.4,2,30.3,5.8
		c0.8,0.3,1.8,0.7,2.6,1.2c6.3,3.1,15.3,9.2,15.3,19c0,8-6.6,15.3-18,20.1c-8.9,3.7-19.3,5.7-30.1,5.7c-11.5,0-22.3-2.2-31.5-6.3
		c-11.5-5.2-17.6-13-16.6-21.2c0.8-7.4,7.2-14,17.9-18.5C-70.5-938.7-60.1-940.7-49.3-940.7"/>
	<path id="path154_1_" fill="#669A40" d="M54.5-906.5c-9.3,0-18.7-1.7-26.9-4.9c-10.1-3.9-17.5-9.7-21.4-16.8
		c-0.4-0.8-0.8-1.4-1.1-1.8c-1.6-2.7-1.9-3.7-2.1-7.8l-1-19.8l9.1,8c2.6,2.3,5.6,4.3,8.9,6c9.9,5.1,21.7,7.8,34.1,7.8
		c11.7,0,23-2.4,32.6-7c3.8-1.8,7.2-4,10.2-6.6l9.2-8l-0.7,12.2c-0.1,2.3-0.3,3.3-0.4,4.1c-0.1,0.8-0.2,1.4-0.3,3.3
		c-0.6,12.4-11.1,20-17.3,23.4C78.1-909.3,66.7-906.5,54.5-906.5"/>
	<path id="path156_1_" fill="#1D1D1B" d="M-3.7-969.5l1.2,24.2c0.1,2.5,0.3,5.1,0.4,7.6c0.2,4.7,0.6,6.6,2.8,10.2
		c0.3,0.4,0.6,1,1,1.7c4.5,8.2,12.8,14.8,24.1,19.1c8.9,3.4,18.8,5.2,28.8,5.2c13,0,25.3-3,35.5-8.6c12.3-6.8,19.5-16.6,20-27.7
		c0.1-1.6,0.2-2.1,0.3-2.8c0.2-1.2,0.3-2.2,0.4-4.6l1.3-24.3l-18.4,16c-2.6,2.3-5.7,4.3-9,5.9c-8.9,4.2-19.4,6.5-30.4,6.5
		c-11.6,0-22.6-2.5-31.8-7.2c-3-1.5-5.6-3.3-7.9-5.3L-3.7-969.5L-3.7-969.5z M7.8-945.8c2.8,2.5,6.1,4.7,10,6.7
		c10.6,5.5,23.2,8.4,36.5,8.4c12.5,0,24.5-2.6,34.8-7.5c4.4-2.1,8.2-4.6,11.4-7.4c-0.2,4.2-0.4,3.2-0.7,7.4
		c-0.4,8.7-7.5,15.2-14.7,19.2c-9.1,5-19.8,7.3-30.5,7.3c-8.7,0-17.4-1.6-25.1-4.5c-7.3-2.8-14.9-7.4-18.8-14.5
		c-2.2-4-2.3-3.1-2.5-7.4C8.1-940.7,7.9-943.2,7.8-945.8"/>
	<path id="path158_1_" fill="#669A40" d="M54.3-936.6c-12.2,0-23.8-2.4-33.6-6.8C7-949.6-0.2-959.3,1-969.9
		c1.1-9.4,8.5-17.4,21-22.7c9.5-4,20.6-6.1,32-6.1c11.6,0,22.7,2.1,32.2,6.2c0.8,0.3,2,0.8,3.2,1.5c11.6,5.8,18,14.1,18,23.5
		c0,10.1-7.7,19.2-21.2,24.8C76.8-938.7,65.7-936.6,54.3-936.6"/>
	<path id="path160_1_" fill="#1D1D1B" d="M54.1-1003.8c-12.2,0-23.9,2.2-34,6.5c-14.3,6-22.9,15.5-24.2,26.8
		c-1.4,12.8,7,24.7,22.6,31.8c10.4,4.8,22.8,7.3,35.7,7.3c12.2,0,23.9-2.2,34.1-6.5c15.4-6.5,24.3-17.3,24.3-29.6
		c0-11.4-7.3-21.4-20.7-28.1c-1.4-0.8-2.7-1.4-3.7-1.7C78.1-1001.5,66.3-1003.8,54.1-1003.8 M54.1-993.5c11,0,21.4,2,30.3,5.8
		c0.8,0.3,1.8,0.7,2.6,1.2c6.3,3.1,15.3,9.2,15.3,19c0,8-6.6,15.3-18,20.1c-8.9,3.7-19.3,5.7-30.1,5.7c-11.5,0-22.3-2.2-31.5-6.3
		c-11.5-5.2-17.6-13-16.6-21.2c0.8-7.4,7.2-14,17.9-18.5C32.9-991.5,43.3-993.5,54.1-993.5"/>
	<path id="path162_1_" fill="#FFFFFF" d="M-140.2-977.3c-11.9,0-32.1-4.7-32.8-22.2c-1.3-34.5-15.9-207.5-19.1-246.4l104.7,0.4
		c-5.7,73.6-18.8,242.3-19.9,249.2c-0.9,5.4-5.2,10.6-11.8,14.3C-124.8-978.9-132.2-977.2-140.2-977.3"/>
	<path id="path164_1_" fill="#010101" d="M-199.7-1252.8c0,0,18.2,215.2,19.8,253.6c0.8,19.9,20.5,28.8,39.7,28.8
		c9.1,0,17.7-2,24.3-5.6c8.5-4.7,14.1-11.7,15.3-19.2c1.3-7.7,20.5-257.1,20.5-257.1L-199.7-1252.8L-199.7-1252.8z M-184.7-1239
		l89.8,0.3c-7.6,97.8-18.2,233-19.3,241.3c-0.6,3.2-3.8,6.7-8.3,9.3c-4.5,2.5-10.9,3.9-17.7,3.9c-1,0-25.4-0.2-25.9-15.6
		C-167.5-1032.4-180.5-1189-184.7-1239"/>
	<path id="path166_1_" fill="#1D1D1B" d="M-2.7-1359.1c0,75.7-61.4,137-137,137c-75.7,0-137-61.4-137-137c0-75.7,61.4-137,137-137
		C-64.1-1496.1-2.7-1434.7-2.7-1359.1"/>
	<path id="path168_1_" fill="#CB2027" d="M-49.3-1277.1c-48.8,48.8-127.5,49.3-175.7,1.1c-48.2-48.2-47.7-126.9,1.1-175.7
		c48.8-48.8,127.5-49.3,175.7-1.1C0-1404.6-0.5-1325.9-49.3-1277.1"/>
	<path id="path170_1_" fill="#FFFFFF" d="M-65-1444.8c19.8,21.9,22.6,48,12.7,53.3c-10,5.5-28.3-5.5-45.3-20.2
		c-16.7-14.8-27.5-33-20.5-45.5C-111.2-1469.7-84.8-1466.8-65-1444.8"/>
</g>
</svg>
