<?xml version="1.0" encoding="utf-8"?>
<!-- Generator: Adobe Illustrator 21.0.0, SVG Export Plug-In . SVG Version: 6.00 Build 0)  -->
<svg version="1.0"
	 id="Layer_2" xmlns:cc="http://creativecommons.org/ns#" xmlns:dc="http://purl.org/dc/elements/1.1/" xmlns:rdf="http://www.w3.org/1999/02/22-rdf-syntax-ns#"
	 xmlns="http://www.w3.org/2000/svg" xmlns:xlink="http://www.w3.org/1999/xlink" x="0px" y="0px" viewBox="0 0 1602.6 456.5"
	 enable-background="new 0 0 1602.6 456.5" xml:space="preserve">
<g id="g236">
	<path id="path238" fill="#FEE600" d="M1578.4,447.1c0,0-36-44.4-56.8-70.3c-6.9-8.6-12.1-15.1-13.9-17.5c-2.5-3.3-4.3-5.7-5.5-6.9
		c-1.2-1.2-1.4-1.3-2.4-1.6c-0.6-0.2-1.8-0.4-3.8-0.4h-85c-2.8,0-5.5-1.1-7.4-3.1c-2-2-3.1-4.7-3.1-7.4v-12.5h-74
		c-2.8,0-5.5-1.1-7.4-3.1c-2-2-3.1-4.7-3.1-7.4v-57c0-2.8,1.1-5.5,3.1-7.4s4.7-3.1,7.4-3.1l75,0v-2h-77c-2.8,0-5.5-1.1-7.4-3.1
		c-2-2-3.1-4.7-3.1-7.4v-54c0-2.8,1.1-5.5,3.1-7.4c2-2,4.7-3.1,7.4-3.1l75,0v-2h-90V340c0,2.8-1.1,5.5-3.1,7.4c-2,2-4.7,3.1-7.4,3.1
		h-64.5c-2.8,0-5.5-1.1-7.4-3.1c-2-2-3.1-4.7-3.1-7.4l0-189.5h-4.5V340c0,2.8-1.1,5.5-3.1,7.4c-2,2-4.7,3.1-7.4,3.1h-157.5
		c-2.8,0-5.5-1.1-7.4-3.1c-2-2-3.1-4.7-3.1-7.4V204.5c0-2.8,1.1-5.5,3.1-7.4c2-2,4.7-3.1,7.4-3.1h82V94.5H1032V341
		c0,2.8-1.1,5.5-3.1,7.4c-2,2-4.7,3.1-7.4,3.1H899c-2.8,0-5.5-1.1-7.4-3.1c-2-2-3.1-4.7-3.1-7.4v-36c0-2.8,1.1-5.5,3.1-7.4
		c2-2,4.7-3.1,7.4-3.1l47.5,0V169h-124v125.5H868c2.8,0,5.5,1.1,7.4,3.1c2,2,3.1,4.7,3.1,7.4v36c0,2.8-1.1,5.5-3.1,7.4
		c-2,2-4.7,3.1-7.4,3.1H756.5c-3.1,0-6.7,0-10.7-0.9c-4-0.9-8.4-2.9-12.1-6.1c-0.6-0.6-0.8-0.8-1.2-1.1c-0.3-0.3-0.6-0.7-1-1.1
		c-0.8-0.8-1.7-1.8-2.8-3.1c-2.3-2.5-5.3-5.8-8.8-9.8c-7-7.9-16.1-18.1-25-28.3c-17.9-20.3-35.3-40.2-35.3-40.2
		c-2.7-3.1-3.4-7.5-1.7-11.3c1.7-3.8,5.4-6.2,9.6-6.2h69V170h-88v170c0,2.8-1.1,5.5-3.1,7.4c-2,2-4.7,3.1-7.4,3.1h-64
		c-2.8,0-5.5-1.1-7.4-3.1c-2-2-3.1-4.7-3.1-7.4V108c0-2.8,1.1-5.5,3.1-7.4c2-2,4.7-3.1,7.4-3.1h85.5V93H464.1v4.5h84
		c2.8,0,5.5,1.1,7.4,3.1c2,2,3.1,4.7,3.1,7.4v232c0,2.8-1.1,5.5-3.1,7.4c-2,2-4.7,3.1-7.4,3.1h-64.5c-2.8,0-5.5-1.1-7.4-3.1
		c-2-2-3.1-4.7-3.1-7.4v-13.5h-76c-2.8,0-5.5-1.1-7.4-3.1c-2-2-3.1-4.7-3.1-7.4v-57c0-2.8,1.1-5.5,3.1-7.4c2-2,4.7-3.1,7.4-3.1l76,0
		V246h-76.5c-2.8,0-5.5-1.1-7.4-3.1c-2-2-3.1-4.7-3.1-7.4V182c0-2.8,1.1-5.5,3.1-7.4c2-2,4.7-3.1,7.4-3.1h77v-3h-91.5V340
		c0,2.8-1.1,5.5-3.1,7.4c-2,2-4.7,3.1-7.4,3.1h-67c-1.1,0-2.3,0-3.8-0.2c-1.4-0.2-3.1-0.7-4.4-1.3c-2.7-1.2-4-2.3-6.2-3.7
		c-1.1-0.8-1.6-1.3-2-1.7c-0.4-0.4-0.7-0.7-0.9-1c-0.5-0.6-1-1.2-1.4-1.9c-1-1.3-2-3-3.3-4.9c-2.5-4-5.8-9.3-9.7-15.5
		c-7.6-12.6-17.3-28.9-26.9-45.2c-19.1-32.5-37.6-64.7-37.6-64.7c-1.9-3.3-1.9-7.2,0-10.5c1.9-3.2,5.3-5.2,9.1-5.2l81.5,0v-100
		h-99.6L198.1,340c0,5.7-4.7,10.4-10.4,10.4c0,0-82.4,0.5-86.1,0.5c-6.3,0-11.4-2.1-14.7-4.2c-3.2-2-4.9-4-5.5-4.7l0,0L4.5,249.2v0
		c-3.7-4.5-3.1-11.1,1.4-14.8c4.5-3.7,11.1-3.1,14.8,1.4l76.7,92.7c0.1,0.1,0.4,0.3,0.7,0.5c0.8,0.5,1.7,0.9,3.5,0.9
		c1.6,0,23.2-0.1,44.2-0.2c11.7-0.1,23.3-0.1,31.3-0.2l1.4-245.6c0-5.8,4.7-10.4,10.5-10.4h120.5c2.8,0,5.5,1.1,7.4,3.1
		c2,2,3.1,4.7,3.1,7.4v121c0,2.8-1.1,5.5-3.1,7.4c-2,2-4.7,3.1-7.4,3.1h-73.8c3.1,5.4,6.9,11.8,11,18.9
		c11.5,19.8,25.9,44.4,37.5,63.8c7.7,12.9,14.3,23.6,17.7,28.6c0.5,0.7,0.9,1.3,1.2,1.7c0.6,0.4,1.1,0.7,1.4,0.9c0,0,0,0,0.1,0
		c2.6,0,38.3,0,56.5,0V158c0-2.8,1.1-5.5,3.1-7.4c2-2,4.7-3.1,7.4-3.1h112.5c2.8,0,5.5,1.1,7.4,3.1c2,2,3.1,4.7,3.1,7.4v24
		c0,2.8-1.1,5.5-3.1,7.4c-2,2-4.7,3.1-7.4,3.1h-77V225h76.5c2.8,0,5.5,1.1,7.4,3.1c2,2,3.1,4.7,3.1,7.4V259c0,2.8-1.1,5.5-3.1,7.4
		c-2,2-4.7,3.1-7.4,3.1l-76,0v36h76c2.8,0,5.5,1.1,7.4,3.1c2,2,3.1,4.7,3.1,7.4v13.5h43.5v-211h-84c-2.8,0-5.5-1.1-7.4-3.1
		c-2-2-3.1-4.7-3.1-7.4V82.4c0-2.8,1.1-5.5,3.1-7.4c2-2,4.7-3.1,7.4-3.1h216.5c2.8,0,5.5,1.1,7.4,3.1c2,2,3.1,4.7,3.1,7.4v25.5
		c0,2.8-1.1,5.5-3.1,7.4c-2,2-4.7,3.1-7.4,3.1h-85.5v211h43v-170c0-2.8,1.1-5.5,3.1-7.4c2-2,4.7-3.1,7.4-3.1h109
		c2.8,0,5.5,1.1,7.4,3.1c2,2,3.1,4.7,3.1,7.4v94.5c0,2.8-1.1,5.5-3.1,7.4c-2,2-4.7,3.1-7.4,3.1h-56.3c4.8,5.4,10.2,11.7,15.9,18.1
		c16.3,18.5,34.1,38.7,39.8,44.8c0.5,0.5,0.9,1,1.1,1.2c1.2,0.9,1.8,1.2,3,1.5c1.2,0.3,3.2,0.4,6.1,0.4c4.8,0,74.2,0,101,0v-15
		h-45.5c-2.8,0-5.5-1.1-7.4-3.1c-2-2-3.1-4.7-3.1-7.4V158.4c0-2.8,1.1-5.5,3.1-7.4c2-2,4.7-3.1,7.4-3.1h145c2.8,0,5.5,1.1,7.4,3.1
		c2,2,3.1,4.7,3.1,7.4v146.5c0,2.8-1.1,5.5-3.1,7.4c-2,2-4.7,3.1-7.4,3.1h-47.5v15h101.5V83.9c0-2.8,1.1-5.5,3.1-7.4
		c2-2,4.7-3.1,7.4-3.1h122.5c2.8,0,5.5,1.1,7.4,3.1c2,2,3.1,4.7,3.1,7.4v120.5c0,2.8-1.1,5.5-3.1,7.4c-2,2-4.7,3.1-7.4,3.1h-82
		v114.5h136.5V139.9c0-2.8,1.1-5.5,3.1-7.4c2-2,4.7-3.1,7.4-3.1h25.5c2.8,0,5.5,1.1,7.4,3.1c2,2,3.1,4.7,3.1,7.4v189.5h43.5V159.9
		c0-2.8,1.1-5.5,3.1-7.4c2-2,4.7-3.1,7.4-3.1h111c2.8,0,5.5,1.1,7.4,3.1c2,2,3.1,4.7,3.1,7.4v23c0,2.8-1.1,5.5-3.1,7.4
		c-2,2-4.7,3.1-7.4,3.1h-75v33h77c2.8,0,5.5,1.1,7.4,3.1c2,2,3.1,4.7,3.1,7.4v23c0,2.8-1.1,5.5-3.1,7.4c-2,2-4.7,3.1-7.4,3.1h-75v36
		h74c2.8,0,5.5,1.1,7.4,3.1c2,2,3.1,4.7,3.1,7.4v12.5c22,0,71,0,74.5,0c3.4,0,6.7,0.4,9.8,1.3c3.1,0.9,6,2.4,8.3,4.2
		c4.7,3.7,7.2,7.6,10.3,11.6c1.1,1.4,4.3,5.5,8.8,11c4.4,5.6,10.1,12.6,16.2,20.2c12.2,15.1,26.1,32.3,35.2,43.6
		c6.1,7.5,10.1,12.5,10.1,12.5c3.6,4.5,3,11.1-1.6,14.8c-1.9,1.6-4.3,2.3-6.6,2.3C1583.4,450.9,1580.4,449.6,1578.4,447.1
		L1578.4,447.1z"/>
	<path id="path240" d="M1586.6,456.5c-4.6,0-9.3-2-12.4-5.9l0,0c-0.2-0.2-36.1-44.5-56.8-70.3c-7-8.7-12.1-15.1-14-17.6
		c-2.4-3.2-4.3-5.6-4.9-6.3c-0.1-0.1-0.2-0.2-0.3-0.3c-0.1,0-0.2,0-0.3,0c-0.4,0-0.9-0.1-1.7-0.1h-85c-4.2,0-8.3-1.7-11.3-4.7
		c-3-3-4.7-7.1-4.7-11.3v-7h-68.5c-4.3,0-8.3-1.7-11.3-4.7c-0.1-0.1-0.1-0.1-0.2-0.2V340c0,4.2-1.7,8.3-4.7,11.3
		c-3,3-7.1,4.7-11.3,4.7h-64.5c-4.2,0-8.3-1.7-11.3-4.7c-0.5-0.5-1-1.1-1.4-1.7c-0.4,0.6-0.9,1.1-1.4,1.7c-3,3-7.1,4.7-11.3,4.7
		h-157.5c-4.2,0-8.3-1.7-11.3-4.7c-1.5-1.5-2.7-3.3-3.5-5.3c-0.8,2.3-2.1,4.5-3.9,6.3c-3,3-7.1,4.7-11.3,4.7H899.1
		c-4.2,0-8.3-1.7-11.3-4.7c-2.1-2.1-3.5-4.6-4.2-7.4c-0.7,2.8-2.1,5.3-4.2,7.4c-3,3-7.1,4.7-11.3,4.7H756.5c-3.1,0-7.2,0-11.8-1
		c-4.9-1.1-10.1-3.4-14.6-7.3c-0.8-0.7-1.2-1.2-1.5-1.4l0,0l0,0c-0.3-0.3-0.7-0.7-1.1-1.1c-0.8-0.8-1.7-1.9-2.9-3.1
		c-2.3-2.5-5.3-5.9-8.8-9.8c-7-7.9-16.1-18.1-25-28.3c-17.9-20.3-35.3-40.2-35.3-40.3c-0.5-0.6-1-1.3-1.5-1.9V340
		c0,4.3-1.7,8.3-4.7,11.3c-3,3-7.1,4.7-11.3,4.7h-64c-4.3,0-8.3-1.7-11.3-4.7c-0.6-0.6-1.2-1.3-1.7-2c-0.5,0.7-1.1,1.4-1.7,2
		c-3,3-7.1,4.7-11.3,4.7h-64.7c-4.2,0-8.3-1.7-11.3-4.7c-3-3-4.7-7.1-4.7-11.3v-8h-70.5c-3.4,0-6.8-1.1-9.5-3.1V340
		c0,4.3-1.7,8.3-4.7,11.3c-3,3-7.1,4.7-11.3,4.7h-67c-1.2,0-2.7,0-4.5-0.3c-2-0.3-4-0.9-5.9-1.7c-3.2-1.5-4.9-2.9-6.9-4.1l-0.1,0
		l-0.1,0c-1.4-1-2.5-2-2.7-2.3l0,0l0-0.1c-0.5-0.5-0.9-1-1.2-1.4c-0.6-0.8-1.1-1.5-1.7-2.2c-1-1.4-2.2-3.1-3.5-5.2
		c-2.6-4-5.9-9.4-9.7-15.7c-7.6-12.6-17.3-29-26.9-45.3c-17.1-29.1-33.7-58-37-63.7l-0.7,126.1c-0.1,8.8-7.1,15.8-15.9,15.9h0
		c0,0-0.1,0-0.2,0c-0.2,0-0.4,0-0.7,0c-0.6,0-1.5,0-2.6,0c-2.3,0-5.5,0-9.4,0.1c-7.8,0-18.2,0.1-28.7,0.2
		c-21.1,0.1-42.5,0.2-44.4,0.2h-0.1c-7.5,0-13.5-2.5-17.5-5c-0.9-0.6-1.7-1.2-2.5-1.7l-0.5,0.5l-71-85.8L0,252.7
		c-2.5-3-3.7-6.6-3.7-10.2c0-2.9,0.8-5.9,2.4-8.5v-0.1l0,0.1c0.9-1.4,2-2.7,3.3-3.8c3-2.5,6.6-3.7,10.2-3.7c4.6,0,9.2,2,12.3,5.8
		l76.3,92.2c0,0,0.1,0,0.4,0c1.6,0,23.2-0.1,44.2-0.2c9.3-0.1,18.5-0.1,25.9-0.2l1.4-240.2c0.1-8.8,7.2-15.9,16-15.9h120.5
		c4.2,0,8.3,1.7,11.3,4.7c3,3,4.7,7.1,4.7,11.3v121c0,4.3-1.7,8.3-4.7,11.3c-3,3-7.1,4.7-11.3,4.7h-64.3c1.9,3.3,4,6.9,6.2,10.7
		c11.5,19.7,25.9,44.4,37.5,63.7c7.7,12.9,14.3,23.6,17.5,28.4c0,0.1,0.1,0.1,0.1,0.2c5.8,0,22.2,0,37,0c4.2,0,8.2,0,11.9,0V158
		c0-4.3,1.7-8.3,4.7-11.3c3-3,7.1-4.7,11.3-4.7h112.5c4.3,0,8.3,1.7,11.3,4.7c3,3,4.7,7.1,4.7,11.3v24c0,4.3-1.7,8.3-4.7,11.3
		c-3,3-7.1,4.7-11.3,4.7h-71.5v21.5h71c4.3,0,8.3,1.7,11.3,4.7c3,3,4.7,7.1,4.7,11.3l0,23.5c0,4.2-1.7,8.3-4.7,11.3
		c-3,3-7.1,4.7-11.3,4.7h-70.5v25h70.5c4.3,0,8.3,1.7,11.3,4.7c3,3,4.7,7.1,4.7,11.3v8h32.5V124h-78.5c-4.2,0-8.3-1.7-11.3-4.7
		c-3-3-4.7-7.1-4.7-11.3V82.5c0-4.3,1.7-8.3,4.7-11.3c3-3,7.1-4.7,11.3-4.7h216.5c4.3,0,8.3,1.7,11.3,4.7c3,3,4.7,7.1,4.7,11.3V108
		c0,4.2-1.7,8.3-4.7,11.3c-3,3-7.1,4.7-11.3,4.7h-80v200h32V159.6c0-4.3,1.7-8.3,4.7-11.3c3-3,7.1-4.7,11.3-4.7l109,0
		c4.2,0,8.3,1.7,11.3,4.7c3,3,4.7,7.1,4.7,11.3v94.5c0,4.3-1.7,8.3-4.7,11.3c-3,3-7.1,4.7-11.3,4.7h-44.2c2.6,2.9,5.2,5.9,7.9,9
		c16.3,18.5,34.2,38.8,39.7,44.7c0.3,0.3,0.6,0.6,0.8,0.8c0.1,0,0.1,0.1,0.1,0.1l0,0c0,0,0,0,0.1,0c0.1,0,0.2,0.1,0.5,0.1
		c0.4,0.1,2,0.2,4.3,0.2c0.1,0,0.2,0,0.5,0c3.4,0,28,0,53.3,0c15.4,0,31,0,42.1,0v-4h-40c-4.3,0-8.3-1.7-11.3-4.7
		c-3-3-4.7-7.1-4.7-11.3V158.5c0-4.3,1.7-8.3,4.7-11.3c3-3,7.1-4.7,11.3-4.7h145c4.3,0,8.3,1.7,11.3,4.7c3,3,4.7,7.1,4.7,11.3V305
		c0,4.3-1.7,8.3-4.7,11.3c-3,3-7.1,4.7-11.3,4.7h-42v4h90.5V84c0-4.2,1.7-8.3,4.7-11.3c3-3,7.1-4.7,11.3-4.7l122.5,0
		c4.2,0,8.3,1.7,11.3,4.7c3,3,4.7,7.1,4.7,11.3l0,120.5c0,4.2-1.7,8.3-4.7,11.3c-3,3-7.1,4.7-11.3,4.7h-76.5V324h125.5V140
		c0-4.3,1.7-8.3,4.7-11.3c3-3,7.1-4.7,11.3-4.7h25.5c4.3,0,8.3,1.7,11.3,4.7c3,3,4.7,7.1,4.7,11.3v184h32.5V160
		c0-4.3,1.7-8.3,4.7-11.3c3-3,7.1-4.7,11.3-4.7h111c4.2,0,8.3,1.7,11.3,4.7c3,3,4.7,7.1,4.7,11.3l0,23c0,4.2-1.7,8.3-4.7,11.3
		c-3,3-7.1,4.7-11.3,4.7h-69.5v22h71.5c4.2,0,8.3,1.7,11.3,4.7c3,3,4.7,7.1,4.7,11.3v23c0,4.2-1.7,8.3-4.7,11.3
		c-3,3-7.1,4.7-11.3,4.7h-69.5v25h68.5c4.2,0,8.3,1.7,11.3,4.7c3,3,4.7,7.1,4.7,11.3v7h69c3.8,0,7.6,0.4,11.3,1.5
		c3.8,1.1,7.3,2.9,10.2,5.2c5.4,4.3,8.3,8.8,11.3,12.6c1,1.3,4.3,5.4,8.7,10.9c4.4,5.5,10.1,12.6,16.2,20.2
		c12.2,15.1,26.1,32.3,35.2,43.6c6.1,7.5,10,12.4,10.1,12.5c0,0,0,0,0,0c0,0,0,0,0,0c2.4,2.9,3.6,6.5,3.6,10.1c0,4.6-2,9.3-5.9,12.4
		c-2.9,2.4-6.5,3.6-10,3.6h-0.3L1586.6,456.5z M1451.9,345h44.2c2.4,0,4,0.2,5.4,0.6l0.1,0l0.1,0c0.4,0.1,1.3,0.4,2.2,1
		c0.9,0.6,1.4,1.1,2.1,1.8l0.1,0.1c1.8,1.8,3.4,4.1,6,7.4c1.7,2.2,6.9,8.7,13.8,17.4c20.8,25.8,56.8,70.3,56.8,70.3l-4.3,3.5
		l4.3-3.5c1,1.2,2.4,1.8,3.9,1.9c1.1,0,2.2-0.4,3.1-1.1c1.2-1,1.9-2.4,1.9-3.9c0-1.1-0.4-2.2-1.2-3.2c0,0-0.1-0.1-0.1-0.2
		c-0.1-0.2-0.3-0.4-0.5-0.7c-0.5-0.6-1.2-1.4-2-2.5c-1.8-2.2-4.3-5.3-7.3-9.1c-9.2-11.3-23-28.5-35.2-43.6
		c-6.1-7.6-11.8-14.6-16.2-20.2c-4.5-5.6-7.7-9.6-8.8-11.1c-3.4-4.3-5.5-7.6-9.3-10.7c-1.8-1.4-4.1-2.6-6.5-3.3
		c-2.5-0.7-5.1-1-8.2-1c-3.5,0-52.5,0-74.5,0h-5.5v-18c0-1.3-0.6-2.6-1.5-3.5c-0.9-0.9-2.3-1.5-3.5-1.5h-79.5v-47h80.5
		c1.3,0,2.6-0.6,3.5-1.5c0.9-0.9,1.5-2.3,1.5-3.5v-23c0-1.3-0.6-2.6-1.5-3.5c-0.9-0.9-2.3-1.5-3.5-1.5h-82.5v-44h80.5
		c1.3,0,2.6-0.6,3.5-1.5c0.9-0.9,1.5-2.3,1.5-3.5v-23c0-1.3-0.6-2.6-1.5-3.5c-0.9-0.9-2.3-1.5-3.5-1.5h-111c-1.3,0-2.6,0.6-3.5,1.5
		c-0.9,0.9-1.5,2.3-1.5,3.5v175h-54.5V140c0-1.3-0.6-2.6-1.5-3.5c-0.9-0.9-2.3-1.5-3.5-1.5h-25.5c-1.3,0-2.6,0.6-3.5,1.5
		c-0.9,0.9-1.5,2.3-1.5,3.5v195h-147.5V209.5h87.5c1.3,0,2.6-0.6,3.5-1.5c0.9-0.9,1.5-2.2,1.5-3.5l0-120.5c0-1.3-0.6-2.6-1.5-3.5
		c-0.9-0.9-2.3-1.5-3.5-1.5h-122.5c-1.3,0-2.6,0.6-3.5,1.5c-0.9,0.9-1.5,2.3-1.5,3.5v252H904.1v-26h53c1.3,0,2.6-0.6,3.5-1.5
		c0.9-0.9,1.5-2.3,1.5-3.5V158.5c0-1.3-0.6-2.6-1.5-3.5c-0.9-0.9-2.3-1.5-3.5-1.5h-145c-1.3,0-2.6,0.6-3.5,1.5
		c-0.9,0.9-1.5,2.3-1.5,3.5V305c0,1.3,0.6,2.6,1.5,3.5c0.9,0.9,2.3,1.5,3.5,1.5h51v26h-5.5c-11.1,0-29.5,0-47.6,0
		c-25.6,0-50.6,0-53.4,0h-0.1l-0.1,0h-0.3c-2.9,0-4.9-0.1-7-0.5l-0.1,0l0,0c-1.3-0.3-3.6-1.2-5-2.5l-0.3-0.2l-0.3-0.3
		c-0.2-0.3-0.7-0.7-1.2-1.3c-5.7-6.2-23.6-26.4-39.9-44.9c-5.7-6.4-11.2-12.7-15.9-18.1l-8-9.1h68.5c1.3,0,2.6-0.6,3.5-1.5
		c0.9-0.9,1.5-2.3,1.5-3.5v-94.5c0-1.3-0.6-2.6-1.5-3.5c-0.9-0.9-2.3-1.5-3.5-1.5H638.1c-1.3,0-2.6,0.6-3.5,1.5
		c-0.9,0.9-1.5,2.3-1.5,3.5V335h-54V113h91c1.3,0,2.6-0.6,3.5-1.5c0.9-0.9,1.5-2.3,1.5-3.5V82.5c0-1.3-0.6-2.6-1.5-3.5
		c-0.9-0.9-2.3-1.5-3.5-1.5H453.6c-1.3,0-2.6,0.6-3.5,1.5c-0.9,0.9-1.5,2.3-1.5,3.5V108c0,1.3,0.6,2.6,1.5,3.5
		c0.9,0.9,2.3,1.5,3.5,1.5h89.5v222h-54.5v-19c0-1.3-0.5-2.6-1.5-3.5c-0.9-0.9-2.3-1.5-3.5-1.5h-81.5v-47l81.5,0
		c1.3,0,2.6-0.6,3.5-1.5c0.9-0.9,1.5-2.3,1.5-3.5v-23.5c0-1.3-0.6-2.6-1.5-3.5c-0.9-0.9-2.3-1.5-3.5-1.5h-82V187h82.5
		c1.3,0,2.6-0.6,3.5-1.5c0.9-0.9,1.5-2.3,1.5-3.5v-24c0-1.3-0.6-2.6-1.5-3.5c-0.9-0.9-2.3-1.5-3.5-1.5H371.6c-1.3,0-2.6,0.6-3.5,1.5
		c-0.9,0.9-1.5,2.3-1.5,3.5v177l-5.5,0h-17.4c-17.5,0-37.2,0-39.1,0c0,0-0.1,0-0.4,0l-1.4-0.1l-1.2-0.8c-0.4-0.2-0.9-0.6-1.5-1
		l-0.8-0.6l-0.6-0.8c-0.3-0.5-0.8-1.1-1.3-1.9c-3.5-5.2-10.1-15.9-17.8-28.9c-11.6-19.5-26-44.1-37.5-63.9
		c-4.1-7.1-7.9-13.6-11-18.9l-4.8-8.3h83.3c1.3,0,2.6-0.6,3.5-1.5c0.9-0.9,1.5-2.3,1.5-3.5V84c0-1.3-0.6-2.6-1.5-3.5
		c-0.9-0.9-2.2-1.5-3.5-1.5H189.1c-2.7,0-5,2.2-5,5L182.7,335l-5.4,0c-8,0-19.6,0.1-31.3,0.2c-21,0.1-42.6,0.2-44.3,0.2
		c-2.7,0-5.2-1-6.3-1.7l0,0l-0.1,0c-0.7-0.5-1.2-0.9-1.6-1.2l-0.2-0.2l-77-93c-1-1.2-2.4-1.8-3.9-1.8c-1.1,0-2.2,0.4-3.2,1.2
		c-1.2,1-1.8,2.4-1.8,3.9c0,1.1,0.4,2.2,1.1,3.1l76.4,92.3l0.5,0.6c0.4,0.5,1.7,2,4.3,3.6c2.6,1.6,6.6,3.3,11.6,3.3h0.1
		c3.6,0,86-0.5,86-0.5c2.7,0,5-2.3,5-5l1.5-251h110.5v111l-87,0c-1.8,0-3.4,0.9-4.3,2.5c-0.5,0.8-0.7,1.6-0.7,2.5
		c0,0.8,0.2,1.7,0.6,2.4c0,0,0,0,0,0c0,0,0,0,0,0c0,0,0,0,0,0c0,0,0,0,0,0.1c0,0.1,0.1,0.2,0.2,0.3c0.1,0.2,0.4,0.6,0.6,1.1
		c0.5,0.9,1.3,2.3,2.4,4.1c2,3.5,4.9,8.6,8.4,14.6c7,12.1,16.4,28.3,25.9,44.5c9.5,16.3,19.2,32.6,26.8,45.1
		c3.8,6.3,7.1,11.5,9.6,15.4c1.3,1.9,2.3,3.5,3.2,4.7c0.5,0.6,0.8,1.1,1.2,1.6c0.2,0.3,0.4,0.5,0.6,0.7c0.5,0.5,0.4,0.4,1.2,1v0
		c2.4,1.6,3.3,2.3,5.3,3.3c0.8,0.4,2,0.7,2.9,0.9c1.1,0.2,1.9,0.2,2.9,0.2h67c1.3,0,2.6-0.6,3.5-1.5c0.9-0.9,1.5-2.3,1.5-3.5V163
		h102.5v14h-82.5c-1.3,0-2.6,0.6-3.5,1.5c-0.9,0.9-1.5,2.3-1.5,3.5v53.5c0,1.3,0.6,2.6,1.5,3.5c0.9,0.9,2.3,1.5,3.5,1.5h82V254
		l-81.5,0c-1.3,0-2.6,0.6-3.5,1.5c-0.9,0.9-1.5,2.3-1.5,3.5v57c0,1.3,0.6,2.6,1.5,3.5c0.9,0.9,2.2,1.5,3.5,1.5h81.5v19
		c0,1.3,0.6,2.6,1.5,3.5c0.9,0.9,2.2,1.5,3.5,1.5h64.5c1.3,0,2.6-0.6,3.5-1.5c0.9-0.9,1.5-2.3,1.5-3.5V108c0-1.3-0.6-2.6-1.5-3.5
		c-0.9-0.9-2.3-1.5-3.5-1.5h-89.5V87.5h206.5V103h-91c-1.3,0-2.6,0.6-3.5,1.5c-0.9,0.9-1.5,2.3-1.5,3.5v232c0,1.3,0.5,2.6,1.5,3.5
		c0.9,0.9,2.3,1.5,3.5,1.5h64c1.3,0,2.6-0.6,3.5-1.5c0.9-0.9,1.5-2.3,1.5-3.5V164.5h99V249l-74.5,0c-2,0-3.7,1.2-4.6,2.9
		c-0.3,0.7-0.4,1.3-0.4,2.1c0,1.2,0.4,2.3,1.2,3.3l0,0l0,0c0,0,0,0,0,0c0,0,0.1,0.1,0.1,0.2c0.1,0.2,0.3,0.4,0.6,0.7
		c0.5,0.6,1.3,1.4,2.2,2.5c1.9,2.2,4.7,5.3,7.9,9.1c6.6,7.5,15.4,17.6,24.3,27.7c8.9,10.1,18,20.4,25,28.3c3.5,3.9,6.5,7.3,8.7,9.8
		c1.1,1.2,2,2.2,2.8,3c0.4,0.4,0.7,0.7,0.9,1c0.4,0.4,0.4,0.4,0.9,0.8c2.9,2.6,6.6,4.2,9.7,4.9c3.4,0.7,6.4,0.8,9.5,0.8h111.5
		c1.3,0,2.6-0.6,3.5-1.5c0.9-0.9,1.5-2.3,1.5-3.5v-36c0-1.3-0.6-2.6-1.5-3.5c-0.9-0.9-2.3-1.5-3.5-1.5h-51V163.5h135V300h-53
		c-1.3,0-2.6,0.6-3.5,1.5c-0.9,0.9-1.5,2.3-1.5,3.5l0,36c0,1.3,0.6,2.6,1.5,3.5c0.9,0.9,2.3,1.5,3.5,1.5h122.5
		c1.3,0,2.6-0.6,3.5-1.5c0.9-0.9,1.5-2.3,1.5-3.5V89h112.5v110.5h-87.5c-1.3,0-2.6,0.6-3.5,1.5c-0.9,0.9-1.5,2.3-1.5,3.5V340
		c0,1.3,0.6,2.6,1.5,3.5c0.9,0.9,2.2,1.5,3.5,1.5h157.5c1.3,0,2.6-0.6,3.5-1.5c0.9-0.9,1.5-2.3,1.5-3.5V145h15.5l0,195
		c0,1.3,0.6,2.6,1.5,3.5c0.9,0.9,2.3,1.5,3.5,1.5h64.5c1.3,0,2.6-0.6,3.5-1.5c0.9-0.9,1.5-2.3,1.5-3.5V165h101v13l-80.5,0
		c-1.3,0-2.6,0.6-3.5,1.5c-0.9,0.9-1.5,2.3-1.5,3.5v54c0,1.3,0.6,2.6,1.5,3.5c0.9,0.9,2.3,1.5,3.5,1.5h82.5v13h-80.5
		c-1.3,0-2.6,0.6-3.5,1.5c-0.9,0.9-1.5,2.3-1.5,3.5v57c0,1.3,0.6,2.6,1.5,3.5c0.9,0.9,2.3,1.5,3.5,1.5h79.5v18
		c0,1.3,0.6,2.6,1.5,3.5c0.9,0.9,2.2,1.5,3.5,1.5L1451.9,345L1451.9,345z M828.1,289h40c4.2,0,8.3,1.7,11.3,4.7
		c2.1,2.1,3.5,4.6,4.2,7.4c0.7-2.8,2.1-5.3,4.2-7.4c3-3,7.1-4.7,11.3-4.7l42,0V174.5h-113L828.1,289L828.1,289L828.1,289z
		 M663.8,257.3C663.8,257.3,663.8,257.3,663.8,257.3L663.8,257.3L663.8,257.3L663.8,257.3C663.8,257.3,663.8,257.3,663.8,257.3
		L663.8,257.3z M654,245.4c2.9-4.6,8-7.4,13.5-7.4H731v-62.5h-77L654,245.4L654,245.4L654,245.4z M1037.6,196.8
		c0.7-1.3,1.6-2.5,2.7-3.6c3-3,7.1-4.7,11.3-4.7l76.5,0V100h-90.5L1037.6,196.8L1037.6,196.8z M204.4,195.9c3-4.3,7.9-6.9,13.2-6.9
		l76,0v-89H205L204.4,195.9L204.4,195.9z M561,98.7c0-0.1,0.1-0.1,0.1-0.2h-0.3C561,98.6,561,98.6,561,98.7L561,98.7z"/>
</g>
<g id="g242">
	<path id="path244" fill="#FEE600" d="M1212.7,102.4l-35.5-35.5c-2-2-3.1-4.7-3.1-7.5c0-2.8,1.2-5.5,3.2-7.5l35.5-34.5
		c4.1-4,10.7-3.9,14.8,0.2l34.5,35c4,4.1,4,10.7,0,14.7l-34.5,35c-2,2-4.6,3.1-7.4,3.1h0C1217.2,105.5,1214.5,104.4,1212.7,102.4
		L1212.7,102.4z M1199.5,59.6l20.5,20.5l19.8-20.1l-19.9-20.2L1199.5,59.6L1199.5,59.6z"/>
	<path id="path246" d="M1220.1,111c-4.2,0-8.3-1.7-11.3-4.7l3.9-3.9l-3.9,3.9l-35.5-35.5c-3-3-4.7-7.1-4.7-11.3c0,0,0-0.1,0-0.1
		c0-0.1,0-0.1,0-0.2c0.1-4.2,1.8-8.2,4.8-11.2l35.5-34.5c3.1-3,7.1-4.5,11.1-4.5c4.1,0,8.3,1.6,11.4,4.8l34.5,35
		c3.1,3.1,4.6,7.2,4.6,11.2c0,4-1.5,8.1-4.6,11.2l-34.5,35C1228.5,109.3,1224.4,111,1220.1,111l0.1,0L1220.1,111z M1220.1,100
		L1220.1,100c1.4,0,2.6-0.5,3.6-1.5l34.5-35c1-1,1.4-2.2,1.4-3.5c0-1.3-0.5-2.5-1.4-3.5l-34.5-35c-1-1-2.3-1.5-3.6-1.5
		c-1.3,0-2.5,0.5-3.5,1.4l-35.5,34.5c-1,0.9-1.5,2.2-1.5,3.6l0,0.1c0,1.3,0.6,2.5,1.5,3.4l35.5,35.5
		C1217.5,99.5,1218.7,100,1220.1,100L1220.1,100z M1195.6,63.5l-3.9-3.9l28.3-27.5l27.6,28L1220,87.9L1195.6,63.5L1195.6,63.5z
		 M1220,72.3l12.1-12.3l-12.3-12.5l-12.5,12.1L1220,72.3L1220,72.3z"/>
</g>
</svg>
